<?xml version="1.0" encoding="UTF-8"?>
<!DOCTYPE svg PUBLIC "-//W3C//DTD SVG 1.1//EN" "http://www.w3.org/Graphics/SVG/1.1/DTD/svg11.dtd">
<!-- Creator: CorelDRAW X8 -->
<svg xmlns="http://www.w3.org/2000/svg" xml:space="preserve" width="279.4mm" height="215.9mm" version="1.1" style="shape-rendering:geometricPrecision; text-rendering:geometricPrecision; image-rendering:optimizeQuality; fill-rule:evenodd; clip-rule:evenodd"
viewBox="0 0 27940 21590"
 xmlns:xlink="http://www.w3.org/1999/xlink">
 <defs>
  <style type="text/css">
   <![CDATA[
    .str1 {stroke:#1F1B20;stroke-width:100}
    .str0 {stroke:#1F1B20;stroke-width:100}
    .fil1 {fill:#FEFEFE}
    .fil0 {fill:#2B2A29}
   ]]>
  </style>
 </defs>
 <g id="Capa_x0020_1">
  <metadata id="CorelCorpID_0Corel-Layer"/>
  <g id="_2789561430512">
   <path class="fil0 str0" d="M6918 6400c506,-1011 1291,-1828 2339,-2460l874 813c522,-341 1072,-567 1647,-691l0 -1119c1270,-352 2394,-339 3396,-20l20 1179c683,146 1229,383 1668,692l815 -795c1077,545 1844,1338 2379,2318l-774 795c317,533 543,1094 589,1708l1261 20c320,1108 319,2233 -20,3376l-1200 20c-95,684 -352,1207 -691,1647l793 752c-583,1265 -1417,1989 -2379,2440l-732 -793c-501,362 -1072,568 -1709,631l41 1240c-1075,287 -2212,252 -3396,-20l0 -1098c-642,-165 -1208,-405 -1687,-732l-793 793c-1065,-592 -1843,-1408 -2420,-2379l736 -757c-288,-531 -506,-1109 -631,-1749l-1142 25c-321,-1143 -324,-2288 -21,-3436l1200 0c109,-496 302,-1018 671,-1587l-834 -813zm6583 451c2030,0 3676,1645 3676,3675 0,2030 -1646,3676 -3676,3676 -2029,0 -3675,-1646 -3675,-3676 0,-2030 1646,-3675 3675,-3675z"/>
   <path class="fil1 str1" d="M901 12584c161,1555 724,2494 1663,3060 1235,744 4259,1002 5527,0 1975,-1297 1990,-3731 -60,-4962 -1279,-691 -2684,-677 -4486,-1248 -781,-247 -799,-1430 -155,-1943 647,-515 2856,-511 3542,71 915,777 544,1172 743,1397l1604 -89c-124,-1569 -844,-2543 -2109,-2971 -1765,-536 -3180,-412 -4338,208 -840,448 -1471,1146 -1545,2139 -94,1249 248,2011 1337,2525 1087,515 2065,669 3019,850 573,108 1175,156 1681,527 984,721 402,1689 327,1842 -489,1003 -3240,1295 -4463,109 -413,-358 -613,-896 -683,-1545l-1604 30z"/>
   <rect class="fil1 str1" x="11413" y="5619" width="1634" height="10548"/>
   <rect class="fil1 str1" x="13679" y="5626" width="1634" height="10548"/>
   <polygon class="fil1 str1" points="17170,16189 17170,5701 19577,5701 22399,14139 25341,5730 27480,5790 27480,16248 25816,16278 25816,8553 23053,16159 21627,16189 18774,8286 18774,16189 "/>
  </g>
 </g>
</svg>
